<svg id="Layer_1" data-name="Layer 1" xmlns="http://www.w3.org/2000/svg" width="34.82" height="188.16" viewBox="0 0 34.82 188.16"><defs><style>.cls-1{fill:#676767;}.cls-2{fill:#4d4d4d;}.cls-3{fill:#fff;fill-rule:evenodd;}</style></defs><title>mobile-menu-sprite</title><polygon class="cls-1" points="4.61 78.28 16.51 66.42 4.62 54.52 5.98 53.18 17.84 65.08 29.74 53.19 31.08 54.54 19.18 66.41 31.07 78.3 29.73 79.63 17.85 67.75 5.95 79.64 4.61 78.28"/><path class="cls-2" d="M503,304.31l-11.72-11.73a0.71,0.71,0,0,0-1,1l11.23,11.22L490.29,316a0.71,0.71,0,0,0,.49,1.2,0.69,0.69,0,0,0,.49-0.2L503,305.29A0.7,0.7,0,0,0,503,304.31Z" transform="translate(-477.39 -181.39)"/><path class="cls-2" d="M492.2,356.8l11.46-11.46a0.72,0.72,0,1,0-1-1l-12,12a0.72,0.72,0,0,0,0,1l12,12a0.72,0.72,0,0,0,.51.21,0.7,0.7,0,0,0,.51-0.21,0.72,0.72,0,0,0,0-1Z" transform="translate(-477.39 -181.39)"/><path class="cls-3" d="M507.86,181.39H481.75a4.53,4.53,0,0,0-4.35,4.53v26a4.33,4.33,0,0,0,4.33,4.33h25.94a4.55,4.55,0,0,0,4.55-4.36V185.74a4.37,4.37,0,0,0-4.36-4.35h0Zm-4.35,21.76H486.1a1.09,1.09,0,0,0,0,2.18h17.41a1.09,1.09,0,0,0,0-2.18h0Zm0-6.53H486.1a1.09,1.09,0,0,0,0,2.18h17.41a1.09,1.09,0,0,0,0-2.18h0Zm0-6.53H486.1a1.09,1.09,0,0,0,0,2.18h17.41a1.09,1.09,0,1,0,0-2.18h0Zm0,0" transform="translate(-477.39 -181.39)"/></svg>