<svg id="Layer_1" data-name="Layer 1" xmlns="http://www.w3.org/2000/svg" width="600.87" height="113.9" viewBox="0 0 600.87 113.9"><defs><style>.cls-1{fill:#fff;}</style></defs><title>roi-calculator</title><path class="cls-1" d="M460.1-704.26l-.23.12-1.56-.12-.56-.33-.79-.34-.89-.11-1.35-1-1.57-1-.56.12-.22-.12-.34-.11-2.24-1-.67-.33-3.25-2.58-.22-.22-.22-.34L439-718l-.11-.23-.34-.56-4.48-4.7-.44-.9-7.84-11.76-.56-.56h-.34l-.22.12-.23.22-.33.11-.12.11h-.22l-.34.56.79-.22-.23.11v.34l-1.9,5.49-.11.33-.11.11-.12.34-1,3.58-.12.23v.22l-.11.34-1.45,3.92-.12.33-.11.56-1.34,3.36-.23.23v.22l-.22.23-.45,1-.33.9-1.24,4.82-.44.89-.9.79-.22.56-.34.11-.34-.11-1.56.33H411l-.89-.67-.68.56-.56-.11-.89-.11-.45-.23-1.12.45-.78-1,.11-.11h.33v-1.23l-.33-1.46.11-.56-.11-.11h-.23l-.11,1-.11.67-.34-.11-.11-.23-.45-1.23-.11-.33,1.46-7.4.22-.78.56-2.35.23-.45v-.34l1.45-5.6.34-.56.11-.33,1-5,.11-.23.22-.33v-.34l1.35-3.58.22-.45.11-3.36v-.22l-.11.11-.22-.23.33-.44.9-.56.11-.12.11-.33v-.45l-.11-.22-.22-.12h-.11v-.22l.33-.56.11-.11v-.11l-.11-.12h-.56l-1.23.56h-.45l-.33-.33-.68-.79-.11-.11L409-747l-.12-.11-.33.11-.23-.11h-.11l-.22-.23v-.33l.22-.23,1.46-1.23.67-.67,1.23-.9.23-.22.44-.22h.56l.12-.12.33-.11,1-1,.11-.33-.11-.11h-.78l-.56.22-1.35.78-.33.23H411l-.11.11h-.45l-.33-.34v-.33l.22-.23.22-.33.56-.56,4.82-2.47.22-.11.56-.45.68-.78.33-.34.11-.22L418-758l4.14-10.64.11-.33.11-1.68v-.23l-.11-.33L420.56-773,419-775.71l-.89-2.47v-.44l.33-3.81v-.67l.12-.23.89-3,.11-.23.23-.56,1.45-2.8.34-.56.22-.22,2.24-3.14.12-.22,3.8-3.7,1.24-.89.33-.23.45-.44,4.7-3.14.12-.22.33-.12,1.57-1.23.34-.45.22-.22,2.35-3.92.11-.34.12-.22.22-.34.67-.89.11-.23,1.8-1.67.44-.45.12-.23,2.91-3.8.22-.34.11-.23h.12l.33.34.11.23.12.11.22.11h.22l.23-.22.22-.34.23-.23h.11l.11.12.11.33v.45l-.11.34v.22l-.11.22-.79,2.36-.11.44h-.11l-.11.12h-.11l-.12.11v.22l-.11.34-.45,1.68-.11.33h.34l.11-.33.11-.11H447v1l.45-.44.11-.23,1.68-4.14.12-.23.11-.11.22-.11h.11v.34l-.11.44v.23l-.22.67L449-810v.44l.22.34.12.22h.33l.11-.22.45-.56V-810l.11-.12v-.22l.12-.11h.11l.22.22v.11l-.11.45v.45l.22.22.23.12h.45l6.6-.12h.56l.45.12,2.58.44.33.12h.34l.22.11.56.22.23.23.11.22v.23l.45.22h1.12l.33.11h.23l.33.11.9.34.34.33v.34l.11.34.33.22,2.24,1.57.23.11h.33l.12-.22v-.12l-.12-.56-.33-.11-1.35-.67-.33-.11-.11-.11v-.34h.44l.56.22.45.23,1.79,1.12.23.22.22.67.11.23,2,2.35.22.22.79.45.11.11.22.34,1.24,2.8.22.34v.22l.11.34.23,1.23.11.33-.23,4.48-.11.45-.89,2.35-.12.45-.22.56-1.34,2.58-.56.89-3.25,4.37-.67.67-3.48,5.38-.22-1.34-.22.11-.23.33-2.57,2.24-.34.12-.45.44-2.35,1.68-.45.45-.33.23-3.14,2.35-.34.22-.11.11h-.22l-.34-.33v-.11h-.11l-.11.22-.11.34-.12.44h-.78l-.11.12-.23.44v.12l-.33.22-.23-.11h-.33v.11l-.11.22-.68.45-.33.11h-.11v.34l-.12.11v.11H451l-.23.23-1.57,1.12-.22.22-.34.11-.11.23-4.37,2.69-.56.33-.33.23-6.61,3.92-.34.22-.22.11-.34.11-6.38,3.48-.34.11-.11.22-.22.23-.23,1.56v.34l-.22.56v.22l.11.23.11.33,1.12,1.35.12.33H430l.22.34,2.13,2.35.11.23.23.22.33.11,1.35,1.79.22.34.34.34,2.35,2.68.67.68,1.79,3.47.68.67,3.24,2.69.23.33.22.12.11.22,3.36,3.92.34.22.22.12.12.33L452-719l.12.22.33.23,1.23.89.34.45.22.11,2.8,2.47.12.22.22.11h.11l-.11.12h.11v.11h-.11v.11l-.34-.11-.22-.23-2-1.12-.33-.11-.11-.11-.34-.11-.11.11v.22h.11l.22.12,3.59,3.58.45.22,3.58,3.59,1,.78.45,1.46v.45l.22.11.11.22h.11l.12.11v.23l-.23.22-1.23.9Zm-52.31-10.41v-.11l.12-.68.11-.22,2.46-7.39.23-.56v-.23l.11-.44.11-.23v-.22l.22-.34.34-.89v-.45l-.34-.34-.22-.11h-.11v.11l-.23.34.12.33v.34l-.12.11v.11l-.44.56v.23l-.23.45v.33l.11.11h.12l-.12.12-.33.56v.22l.11.22v.23l-.34.33-.22.9-.22.34v.33l-.12.23-1.12,3.8v.56l-.22.34-.22.56v.22l.11.23Zm3.92-12.21.12-.22v-.45l-.23-.23.11-.11h.23l.22-.45v-.33l.11-.11.12-.12v-.89l.11-.23h.33v-.22l-.11-.11.11-.45.12-.34v-.11l.33-.78.11-.34.56-1.9.45-.45.11-.34.34-.56.22-.44v-.45l-.22-.11-1.46,3-.67,1.9-.33.56-.12.34-1.12,3.14-.11.22v.22l.23.34.44.11ZM423.47-773l.12-.12.33-.22.11-.34.23-.33.33-.45.34-3.47.22-.56.12-.34,4.92-11.2.12-.45.44-.44v-1.12l-.22-.12h-.34l-.22.23-1.12.67-.34.11-.11.11h-.11v-.33l1-.9v-.11l.11-.11v-.11l-.11-.12h-.23l-.33.12-.23.33-3.58,3.92-.11.23v.33h.11l.11.11v.12l-.22.33-.67.79-.34.44-.11.12-.23.44h-.11l-.11.34v.11l-.11.11-.23.34-.67.78-.33.34-.12.45-.33.67-.23.22v.9l-.22.34-.11.11-.11.22-.12.45.12,4.7v.34l.22.56.56,1,.22.33.23.12Zm2-17.48.22-.22,1.91-1.79L428-793l2-2,.45-.22.33-.34.34-.11.22-.22V-796h-.44l-.12.11-1.12.67-.67.67-3.25,3.47-.22.23-.11.22v.11Zm10,23.41.11-.22.56-.34.22-.11.12.11h.44l.34-.22,4.14-2.47.23-.33.33-.11.23-.12,6.27-4.48.34-.33.33-.23,3-2.46.44-.45.9-.56,1.34-1.34.34-.23.45-.44.45-.23.33-.22.45-.45,3.7-3.92.44-.34.23-.33,2.13-2.69.22-.34.34-.56,1.23-2.46.11-.34.11-.56-.11-.56.11-.44.11-.12.23-.11.11-.11-.34-.9v-.11l-.22-.33-.78-.9-.23-.34v-.11l-.11-.33v-.11l-.11-.12-1.35-1-.22-.11v-.11l.22-.11.68-.11.22-.12-.22-.22-1.24-.9-.56-.11-2.46-.67-.34-.22h-.22l-.45-.23h-.22l-.23-.11h-1.56l-.23-.11-.45-.11-.22-.12h-.67l-3.25-.11-.34.11-.11.79-.22.33-.67.56h-.68v.12l-.22.11-.22.33v.12H449l.56-.12h.11l.11.12v.56l-.22.44-.34.34-.56-.34v.12l-.22.11-.34.33-.11.34-.33.45-.68,2.46-.11.34-.33.56-2,5.49-.22.56-.12.44-1.45,3.36-.11.45-.12.56-4.36,9.75-.23.56-.22.33-2.24,5.38-.11.33-.12.45Zm1.9,10.19.56-.11,2.47-1.23,1-.34,3.14-1.9,4.93-3.25.33-.33.56-.12,3.36-2.57,2.8-2.58.23-.33.22-.23V-770l-.11-.11h-.45l-.22.11-.23.22-7.84,5.6h-.22l-.22.12-.34.33-5,3.36-.9.45-4.48,2.8-.22.22Zm12.55,41-.45-.68h-.23l-.22-.33-.34-.11v.22l.34.45.22.22.45.23.11.22.23.11Zm2.57,6.38-.11-.11-1.9-1.68-.56-.34-.23-.11-.33-.34h-.23l.67.9.56.56,1.57,1.12.23.11h.33Zm-1.12-5v-.22l-.67-.56-.22-.12h-.12v.12l.23.33.56.34.11.11Zm3.81-57,.22-.33.12-.12-.12-.11-.44.34-.23.45-.22.22Zm10.42-29.57v-.33l-.23-.45-.22-.11-.23-.23-1-.33-.56-.23H463l-.11.12v.11l.56.56.33.22.56.23,1,.44Zm8.06,15.91.45-.45.89-1.68.12-.78v-.12H475l-.11.34-1.34,2.46-.23.23.12.11Z" transform="translate(-404.32 817.38)"/><path class="cls-1" d="M479.25-703.92l-.45-.11h-.22l-.45-.34-3.47-2-.56-.23-2.35-2.24-.23-.33-.22-.23-.12-.33-1.79-3.48-.22-.33v-.23l-.11-.44-1-3v-.45l-.11-.33-.56-4v-.9l-.34-6.72-.11-.34v-.33l.11-.45.45-5.6v-.34l.11-.22v-.34l.9-5,.11-.33v-.23l.11-.44,1.34-5.72.12-.56.11-.22.11-.34,2.13-7.05.22-.67.23-.34,3.36-8.85.11-.45.22-.56,2.58-6.16.11-.33.22-.23.12-.33,3.36-6.83.22-.23.22-.33.12-.23,3.8-6.05.23-.56.33-.33,2.81-4,.33-.23.11-.33.23-.34,3.25-3.81.78-.78,2.69-2.58.89-.78,1.68-1.35.23-.22.22-.11.34-.23,1.68-1.68.56-.22.44-.11.68-.11-.56-.12H505l1.12.12.45.11.56.33,1.68.68.22.22.67.22h.9l.45.12.56.33v.23l-.12.33-.44.67-.34.56v1h.11l.23-.11.22-.22,2-.68.22-.11h.23l.22.11h.22v.23l-.11.33v.56l-.11.34-.22.22-.23.45-1.23,1.79-.11.23v.34h.22l.34.22.67.33.11.23v.22l-.11.34v.45l1,1,.33.12H515l.11-.12h.33l.12-.22.33-.11.23-.34v-.22h.11l.11.22v.11l-.11.45-.23,1.23-.11.45v.23l.23.22v.22l.22.23.11.33.23.34.11.45.11.33.22.12.12.44.67.56.56.79.56,1.12.45.56.11.33.89,2.47.12.45.22.67.9,3.69v.34l.11.22v.56l.45,3.14v8.62l-.12.34-.67,5.26-.22.45-.11.11v.56l-1.35,6.28-.11.44-.11.12-.11.44-2.24,6.95-.12.33-.33.56L515.2-742l-.22.34v.33l-.11.34-.45,1.12-.23.33-.11.34-.22.22-4.6,9.08-.22.33-.11.23-.11.33-4.26,6.72-.34.56-.33.23-1.79,2.68-.34.45-.11.11-.23.34-1.56,2-.45.56-.11.33-3.92,4-.9.79-3.69,3.13-.9.56-4.48,2.13h-.34l-.33.23-1.91.44h-1.12Zm6.27-10.53,2.8-.67H489l3.47-.22h.34l.67-.34.45-.34.34-.11.45-.45.78-1,.67-.68,3.92-5.26,1.46-2,.22-.44.34-.56,3.13-5.16.56-1,3.7-7.4.11-.33.23-.23.11-.33.56-1.23.22-.56.11-.34,1.91-4.7.22-.34.22-.67,1.8-5.6.11-.34.11-.45v-.33l.56-2.91V-759l.11-.12v-1.12l-.11-.56H515v-.33l-.23-4.15v-.56h.12v-.22l.11-.11v-.67l-.34-7.06v-.34l-.11-.33v-.34l.11-1.23-.11-.34v-.22l-.23-.22v-.12l-.11-.11v-.33l.11-.45v-.45l-.44-.45.22-.45v-.33l-.45-.45-.22-.34-.34-1.45-.11-.45-.11-.22v-.34l-.11-.45v-.33l-.56-.56-.79-1.24-.33-.22-.12-.11-.44-.11h-.56l-.34.11-.22.11-.23.22-2,2.69-.34.23-.11.22-.23.34-5.71,8.73-.33.34-.34.56-3.81,6.49-.22.23-.22.67-5.38,10.3-.11.45-.12.23-.22.33-1.79,4-.11.56-.12.23-.22.33-1.9,5.49-.45.56-.11.34L484-737l-.11.34-.22.33v.45l-.56,2.58v.67l-.11.45-.23,1.34-.11.34h-.11l-.12-.23v-.22l-.11-.23.11-.33.12-1,.22-.67v-.34l.34-2.13v-.67l.11-.45,1.57-6.16.11-.33.11-.23.11-.56,2.13-5.82.11-.34v-.22l-.11-.11v-.11l.67-.68v-.56l-.11-.56v-.22l.11-.22.23-.12h.33l.23-.22v-1l.11-.22.78-.79.23-.33v-.56l-.11-.23.11-.11.11-.33.67-.68v-.89l.56-.56.34-.23V-760l.22-.23.34-.56.11-.22.22-.34v-.56l.11-.11.79-.89.11-.12.11-.33v-.34l.11-.22.45-.56.23-.23,1.57-3.13,1.34-2,.11-.45.34-.22,1.68-2.91.11-.34.22-.22.67-1,.57-1,.33-.67.22-.34.12-.11v-.11h.11l.33-.34.12-.33.22-.34.11-.33v-.23l-.11-.11h-.11v.22l-.11.23v.11l-.12.22-.44.34v.22l-.34.34-1.79,2.46-.23.34-.11.22-.33.34-2.69,4.26-.11.33-.23.11h-.33v-.22l.11-.34.11-.11.23-.33.11-.34,5.15-7.62.45-.56.89-1,.34-.34v-.22l.22-.23.23-.33,4.7-5.83.34-.45.11-.22.22-.78.12-.23v-.33l-.34-.68h-.56l-.34.34-.67.9-.22.33-.12.34v.33l-.22.12-.22.44-2.47,3.25-.33.67-.23.23-1.9,2.8-.11.45-.23.22-.33.22-2.8,4.37-.56.9-4.15,5.93-.33.34v.22l-.34.23-2,3-.55.79-3,6.16-.45,1-2.57,6.61-.23.23-.22.67-.11.45v.44l.11.12h.11l.22-.23.12-.33.44-.68.12-.33.11.11.11.22v.23l-.11.22-.34.34v.45l-.11.22v.22l-.22.34-.56,1.34-.45,1.12-.11.45v.67l-.79.68v.44l.12.12h.33l.11.11h-.11l-.11.11-.34.22h-.11l-.11.23.11.33.11.12.12.33v.11l-.23.23v.11l-.11.22v.23l.11,1.34.11.34v.89l-.11.12v.44l-.67,4.48-.11.45v8.63l.22,2.12.11.34.23.22h.11l.34.12.22.11.11.11.11.45.23,1v.33l.22.11.23.45.33.23,1,.33,2.13.11.33.12.12.11v.22l-.23.11h-1.79l-.34.23-.11.11v.11l.22.11h.56l.12.23v.22l-.12.11h-.44v.12l.11.22.22.11Zm-4.14-37.63.22-.34,1-2.24.45-1.12L487-763.5l.11-.23v-1l-.11-.11-.23.11-1.45,2.13v.34l-.23.33-2,3.81-.23.56-.11.34-1.57,4-.22.34v.89l.11.11h.22Zm.56,24.86V-728l.11-.22.22-.12v-.11l.23.23v.78l-.12.22-.22.12h-.11Zm3-23.52.11-.22v-.11l.11-.11h.12l.11.11v.45l-.23.33H485Zm.79-1.56.11-.23L486-753l.11-.33.11-.11.23-.12h.11v.34l-.11.45-.12.33-.44.34h-.11Zm.89-1.91v-.11l.23-.34v-.22l.11-.22.11-.12h.11l.11.12v.22l.11.11v.11h-.11v.12H487v.44h-.45Zm2.24-3.92.11-.45,1-1.9.22-.34.12-.22h.33v.22h-.11l-.22.56L489-757.9l-.11.33h-.11V-758Zm3.14-5.82.11-.23.22-.11.11-.45.12-.22.11-.11H493v.22l-.11.11-.22.56-.11.34-.12.11H492Zm2-3h-.11l.11-.22.11-.34.45-.89.23-.23v-.11l.33-.11h.11l.12.11v.11l-.23.23-.78,1.23-.11.22-.12.12H494Zm.23-15v-.12h.11l.22-.33,2.91-3.92.12-.23.22-.22.22-.45,3.25-4,.23-.34.11-.22.33-.34,2-2.46.34-.34.56-.89.11-.23v-.56l-.22-.22h-.45l-.12.11-.44.23-1,1.12-.34.33v.11l.23.12v.33l-.34.34-3,3.13-.56.56-.23.45-3,4.59-.11.23-.12.33v.12l-.44.44-.11.23-.23.33-.11.12-.11.44-.12.68v.56Zm4.14,63.5.34-.34.44-.56.12-.22.45-.45.78-1.34.45-.23v-.33l.33-.23,1.91-2.68.56-.9.56-1.23.45-.45.11-.34,1.9-3.13.45-.9,1.57-2.8.11-.33v-.68h-.11l-.11.23-.57.89-.22.45v.23l-.11.22v.34l-.11.44h-.23l-.22.23-.11.33-.23.34-2.57,4.37-.34.33-.11.23-.11.33-2.58,3.81-.22.34-.11.22-.34.23-2.13,3-.22.22v.34Zm9.86-81.09.33-.11.23-.11.11-.23.22-.56v-.11l-.11-.11h-.22l-.34.22-.34.12-.33.44-.11.23v.11l.22.11Z" transform="translate(-404.32 817.38)"/><path class="cls-1" d="M529.09-706.16h-.23l-.22-.11v-.11l-.22-.34-.34-.34v-.11h-.22l-.23-.22-.11-.34v-.22l-.11-.11v-.12l-.45-.44v-.12l-.34-.22-1.9-.56-.34-.11h-.22l-.22-.11-3.81-.9-.34-.11h-.11l-.34-.11-.89-.56-.34-.12-.11-.11v-.11l-.45-.56-.11-.22v-1.35l.22-.22.12-.23.22-.56.22-.11.11-.33.23-.12,1-.44.22-.12.11-.11.34-.11,1.12-.45.34-.22.22.11.22-.11,3.36-.9.34-.11H526l.34-.11.67-.45.33-.34v-.33l2.81-7.39.11-.23v-.33l.11-.23.56-2.57v-.45l.11-.34,1-3.92v-.33l.11-.23v-.33l1.35-4.15.11-.33.11-.12.11-.33V-741l.23-.45.11-.34,2.35-8.84v-.45l.11-.23,5.83-19.15.11-.45v-.22L547-783.78l.11-.33v-.45l1.79-5.49.11-.33v-.12l.11-.44.79-2.69v-.23l.11-.22.11-.34.45-1.68.11-.33v-1.12l-.11-.23V-798l-.22-.11-4.93-.56-.23-.23H545l-.22-.22-.45-.34h-.23l-.11-.11-.33-1v-.22l.11-.45v-.11l-.67-.45V-802l-.11-.23.11-.11.22-1.23.11-.34V-804l.23-.22.11-.23H544l.34-.44h.22l.79-.12h.22l.23-.22H546l7.73-.78h.33l.23-.12h.22l1-.22.22-.11h.56l2-.23h.89l5.27-1h.11l3.25-.45h.9l2.91.11.11.11h1.68l.34.12.11.22h-.68l-.44.22-1.23.67-.23.12h.11l.23.11h.67l2.69-.23.33-.11h.23l.22.11h1.34l.34.12.78.11.23.11.11.22h-.11l-.23.23-1.79.67h-.22l-.23.11h-.33l-3.59.11h-.55l-.34.12-3.36.89h-.79l-1.23.11-.22.12v.11h.67l11.65-1h.33l.23.22.11.12h-.34l-.33.11h-.11l-.34.11-.22.11-.34.11h-.11v.23h.11l.34.22,1.23-.22.22.22h.12v.11l-.12.12v.11h.23l.11.11.22.11.12.11.11.23v.33l-.11.34v.22l-.23.34-.56.67-.22.11-.23.23-.22.11-2.58,1.57-.22.22-.23.12h-.33L573-798l-.33.11h-.23l-.22.11-8.63.56-.33.12-.34.33-.11.34-.11.22-.11.11v.56l-.68,3.92v.34l-.11.22v.23L560.67-786l-.11.34v.45L559-779.74v.33l-.11.11-.11.45-1.46,4.93-.22.45-.12.33-6.38,19.49-.11.23v.44l-.56,1v-.22l-.34-.11-.11.11-.11.33-.23.9-.22.45L547.79-745l-.11.22v.22l-.11.23-2.47,6.94-.22.23v.33l-.11.11-2.8,7.28-.11.34-.23.45-3,7.61-.11.34v.22l-.34.23v1.12l-.11.33h.45l.67.34.11.22.22.12H540l5.6-.34h.9L550-718l.34.11h.11l.45.22,2.69,1.12.44.23.68.45.11.22.11.34-.45.44h-.45l-.89.23-.23.22h.23l1.34.34.34.22v.11H555v.34l-.11.22-.34.12-1.34.67-.23.22-.22.11v.34h-.45l-.11-.11-.11.11h-.45l-.22.11h-.45l-4.37.67-.34.12H546l-.22.11-.34.11-.11.11h-.12l.23.23h.45l3.58-.23h1.46l.11.11v.34l-.11.11h-.23l-.67.34-.11.22-.34.11-.22.12-1.68.44h-.34l-.44.23-3.59.22h-.67l-4.48-.11-.22.11h-.56l-1.91-.22h-.22l-.45.22-1.12.11-.22.23-.23-.11h-.45l-.22.11-.78.78h-.23l-1.34.9-.34.11-.11.11h-.34Zm6.27-31.7.34-.78,1.9-6.05,8.29-24.64.56-1,.89-4v-.33l.34-.12v-2.24l-.56.45-1,4-.22.45v.23l-1.23,3.8L542.3-761l-.22.78-3.47,9.64-.45,1.12-.67,2.57-.23.34-2.46,8.17-.11.34v.22l.22.34v.22Z" transform="translate(-404.32 817.38)"/><path class="cls-1" d="M662-741.78l-.23.23-.33.56.22.33-.45.12-.11.11v.33l.11.23-.22.45-.78,1.12-.45.44h-.23v-.44l.12-.23v-.22l-.12.11-.33.45-.11.22-.9.9-.11.22.22.11,1.12-1.12v.56l-.78.9-.11.22-.12.12-.22.44H658l-.12-.67-.11-.22-.22.11-.56.78-.23.12-1.23,1.56-2.46,2.58-.23.22-3.47,3.7-.22.22-3.7,3.36-.33.56v.12l.33-.12,2.8-2.57.79-.56.44-.23.79-1.34,1.12-.78,1.23-1.8,2.69-2.24.22-.78.34-.34,1.79-1.34v.22l-.9,1-.11.11-.44.79-2.13,2.24-.23.33-1.34,1.46-.56.67-6.16,6.27-.23.12-.11.11h-.56l-.45.33L643-720.5l-.45.23-.11-.11.22-.56h.23l.56-.23.11-.33-.23-.23H643l-.45.23-1,1.56-1.34.56H640l-.22.34-1.23,1v.22l-.67,1.12-.23.11-.78.68-.23.22-2.35,1.57-.22.22-.67.11h-.11l-.34.45-.11.11-.34.23-2.8,1.68-.33.11-.23.11-.34.11-1.56.9-.34.11-.11.11-.45.12-2,.78-.34.11h-.23l-.44.11-3.14.9-.22.11h-.45l-.22-.11-.68-.11h-.22l-.45.33-.56.23-.67.22-.34-.11-2.91-.56-.45-.11-1.45-.9h-.34l-.22-.22-.67-1-2.58-2-.45-1.23-.22-.33-2.58-3.7-.11-.22-.11-.12H604l-.33-.22-.34-.56-.34-.22h-.33l-.34-.34-.22.11H602l-.45-.22-.9-1-.22-.22-.56-1.46-.79-.56-.11-.22-.11-.34-.11-.9-.11-.44v-.23l-.11-.33-.45-7.4v-.22l.11-.34.56-5.6V-739l.11-.44.9-5.49.11-.34v-.67l.56-2v-1l-.11-.12-.23.23-.22.45-1.57,4.7-.11.22v.45l-.45,3.14-.67,2.91v1l-.11.89v.34l-.23.22-.22.12v-.12l-.11-.11v-1.79l.67-5.6v-.56l.11-.34.9-3.13v-.23l1.56-4.7.23-.34v-.22l.11-.34.78-2,.23-.45v-.22l.11-.34,1.35-2.69.11-.33.11-.23.11-.33,1.57-3.48v-.44l.11-.12.22-.33,3.14-6.5.34-.67.11-.34,2.24-3.92.22-.44.23-.12.22-.33,3.36-5.38.22-.33L615-781l.22-.33,2.8-3.92.23-.23.11-.22.22-.34,3.25-4,.45-.45.22-.33,3.92-5.94,1.68-.33.23-.12.11-.22,3.69-3.14.45-.44.34-.12,2.57-1.79.23-.11,3.81-1.79.33-.11.23-.12h.33l1.23-.22.23-.11h.56l1.45.33h.23l.56-.33.11-.11h1v.11l.22.11v.11l.23.11h.44l1.24-.22h.56l.22.22,1.23.56.34.23.11.11,1.68,2.35.23.11,1.45,3.37.22.33v.34l.12.33.11,4.26v1l-.56,4v.67l-.11.22-1.68,8.07-.12.33-.11.23-.11.45-1.23,4.14-.11.45-.12.33-.11.23-1.9,5.26-.23.23-.11.44-2.46,5.27-.23.33-.11.23-1.9,3.36-2.24,3.47-.23.11-.11-.22-.11-2.24.11-.23.67-3.69v-.34l.23-.67,1.79-6.5.22-.56.12-.33.78-4.59.11-.34v-.34l.34-1.79.11-.33v-.23l.11-.45.79-2.8v-1l-.12-.12v-.56l.23-.56v-.22l.11-.45-.11-7.17v-2.24l-.23-.33-.22-.11-1.34-.23-.45.34-.79.33-1,.45-.34.23-5.82,5.93-.23.23-.22.11-.23.33-2.57,3-.45.33-.11.12-.23.33L629-777.84l-.45.45-.11.33-3.92,6.84-.22.44-.23.23-.11.33-1.68,2.58-.23.22-.33.23-.11.33-1.46,2.69-.11.34-.23.33-.22.12-.11.44-.11.79L616.11-753l-.23.34-.11.22-.11.45-1.9,5.6-.12.34-.11.22v.45l-1.9,6.94v1l-.79,5.38v.89l.68,4.48.11.45v.67l.78,2.24.23.34.11.22v.23l1.68,3,.11.34.11.22.34.23,2.13,2.35.22.33h.22l.23.23,1.34.89.34.12.22.11H620l4.14.22h.56l.34-.11,3.14-.78.22-.12h.33l.34-.11.23.11-.12.45.23.11h.11l.22-.11.23-.22,5.71-3.92.22-.34.23-.45.11-.11.56-.11h.11l.34-.34.44-.22.45-.9.34-.33,1.57-.79,1-1.34,1.46-.9.22-.33,2.92-2.47,4.36-4,.23-.33.22-.12,4-3.92.23-.22.11-.22.45-.34.78-1,.34-.22,1.68-.56,2.91-2.69.34-.34Zm-58.24,22.52v.11l.33.56.23.11v-.45Zm1.57,4.59.56.89-.23.45-.56-.45-.78-1.56-.11-.12.11-.22h.11l.22.11.23.34Zm7-1.68-.67-.79-.22-.11v.11l.56,1,.22-.11Zm20.39,4,.22.11-.22.34-.23.11-.22-.34Zm17.47-13.78.11.23-.11.33-3.7,3.59-.22.33-.45.45L643.32-719l-.33.22-2.69,2-.22.22-.23.12L634.59-713l-.34.11-.22.11-.11.11-.23-.22.56-.45,3-2.13.33-.11.9-.89.33-.12,1.35-1.23.33-.22.23-.11.22-.23,1.46-1.34.56-.23h.33l.12-.11h.11l.33-.22,2.92-2.47L647-723l.34-.11.11-.23,2.35-2.24Zm12.43-16.8-.11.34v.22h-.23l-.33-.11.11-.33.22-.12h.12l.11-.11Z" transform="translate(-404.32 817.38)"/><path class="cls-1" d="M681.07-712l-.34-.12h-.56l-2.46-.67-.34-.11-.22-.22-.34-.12-2.57-1.45-.34-.23-.22-.11-.23-.33-1.12-1.12-.33-.23-.12-.22-.11-.34-.89-1.79-.12-.34v-.22l-.11-.34-.11-1-.33-1.35v-.22h-.45l-.11.11-.34.22-5.6,4.6-.34.22-.45.22-4.25,2.36-.45.22-.34.22-1.45.34h-.22l-.34.11h-.34l-1.57-.22-1.34-.56-.33-.11-.45-.45L650.16-717l-.12-.23-.22-.89-.11-.34-.11-.22-.23-.23-.11-.22.11-3.36.12-.34v-.67l.55-2.69v-.89l.12-.34-.12.22-.22.34-.11.22-.11.34v.9l-.11.33v.34h-.34l-.11-.11v-2l.22-.34.23-.56.11-.33.11-.23.11-.33,1.12-2.8.11-.79-.11-.22v-.22l.11-.68,2.69-4.48.22-.44v-.12l.23-.33,2-2.8.22-.34.45-.45,3.24-2.8.23-.33.22-.23.34-.11,2.58-1.57.33-.11.22-.11.34-.22,2.58-.79.45-.22H668l2-.11h.45l.22.11.45.11,2.91.78h.23l.45.23,3.35,1.12.45.11.12.22.44.12.9,1,.34.34.11.22.22.34.56,1.23.23.34v.33l-.12.34-.33.9-.12.44-.11.23-.22.33-1.79,2.24-.11.34-.12.22-.11.12v.11l.11.22.12.11.67.34.33.22.11.23v.33l-.22,1.12.56,1.46v.22l-1.12,4.15-.11.33-.22,4.26v.34l.78,3.92.11.44.11.12.11.44,1.12,2.24.23.34.11.22.34.12,1,.44.33.23h.67l1.8-.34.44-.11h.68l.33-.11,1.9-.11h.79l.33-.12,4.49-2,.44-.23h.11v.45l-.22.23-.67,1-.23.12-.22.33-1.46,1-.11.22-.22.12v.44l-.11.12-.11.22-.34.22-3,1.24-.33.22h-.22l-.45.11-1.24.11h-.55l-.23.23h-.56Zm-23.74-8.85,3-2.13.34-.34h.11l.33-.33,3.25-2.91.23-.12.56-.56,6.94-6.72.34-.22.11-.22.33-.12,3.48-2.68.44-.45.11-.34.57-1.23v-.34l-.68-.67-.22-.11h-1.34l-.23.11h-.33l-1.91.45-.33.22h-.34l-.34.12-1.56.67-.34.22-.22.11-.34.12L667-736.62l-.34.22-4.82,4.82-.22.33-3.13,4.82-.23.33-.11.12-.23.44-1.11,2.92-.12.44-.11.12v1l.11.23.12.11v.11h.11Z" transform="translate(-404.32 817.38)"/><path class="cls-1" d="M707.72-705.38l-.33-.11-3-.56-.33-.11-.11-.11-1-.34-.45-.22-.22-.23-2.36-1.68-.33-.11-.11-.11-1-.34-.34-.33-.22-.34-.11-.33-.12-.12h-.44v-.11h-.12l-.11-.33V-712l-.11-.23-.11-.33-.34-1.12-.22-.12v.9l-.23.11h-.11v-.11l-.11-.22-.11-.12-.11-.22V-714l-.56-3.58v-2.69l-.12-.34-.22-1.34v-.23l-.11.23-.34,2.35v.22l.11.34v3.14l-.22.22-.22-.22v-.23l-.12-1.57v-.89l.34-6.39v-.56l.11-.22.23-.9v-.56l.11-.44.33-2.47.12-.33V-731l.56-2.36v-.56l.11-.33.89-3,.12-.22v-.56l.56-2.13.11-.33v-.23l1.45-4.37.12-.22v-.34l.33-.78.11-.34.12-.22v-.34l.89-2.35.11-.33.12-.12v-.44l2.24-5.72.22-.33.22-.45,2.58-5.71.22-.23.12-.22v-.34l.44-.56.12-.33.11-.23.22-.33.11-.23.12-.33v-.23l.22-.33,1.34-2.47L709-769l.11-.23h.11l.11-.11.23-.45,1-1.79.12-.33.11-.12.22-.33,2.69-6.61.11-.34.23-.22.11-.34,4-7,.22-.23.12-.22,7.95-11.54.22-.22.11-.22.23-.23,1.12-1.57.22-.22.23-.11.22-.23,2.8-3.36.34-.22.11-.11.45-.23,2.8-1.67.22-.12h.56l2.69-.44h.89l1.8.56h.33l.23.11.22.22,1,.78.33.23.12.22v.23l.78,2.91v.33l.11.34-.11.34-.34,4.7v.22l-.22.68-.34,1.56-.11.34-.11.22-.22.34-1,3.58-.11.34v.22l-.23.34-1.23,2.46-.11.45-.11.11-.12.45-1.9,2.91-.22.45v.11l-.23.34-3.58,5.26-.23.34-.11.22-.33.12-4.93,5.48-.11.23-.45.45-.34.56-.22.33-.11.11-.12.34-9.18,12.54-.11.23-3.81,4.93-.22.44-1.24,1.68-.22.23-.22.45-2.13,3.47-.11.33-.12.12-.11.33-.33.67v.45l-.12.11-.56,1.12-.11.34-.11.22-.11.34-1.23,4.14-.12.45-.11.11v.45l-1.34,5.71-.11.34v.56l-.79,5.71v.56l-.11.23v5l.11.22v.34l.34,2.12.11.34.11.22.11.34.45,1,.23.33v.12l.22.33.56.67.22.34.12.11.33.11,1.35.9.22.11h.56l2.24.34h.56l.34-.11,2.57-.68.23-.11h.22l.34-.22,1.23-.9.33-.22.34-.34,2.35-1.79,3.7-3.14.33-.22.12-.22.22-.12,1.57-1.56.22-.12,1.57-1.45.34-.23h.11l.22-.22.23-.11.22-.23h.34v.34l-.12.34-.22.44-.22.23-4,4.25-.33.34-.11.22-.23.12-2.91,3.58-.22.11-.12.23-.33.22-2.13,1.79-.34.34-.33.22-2.91,1.57-.34.11h-.22l-.34.11-2.24.9-.34.11h-.44l-2.92.11ZM711-749.73l.79-1.45.22-.12.22-.33,2.58-4,.22-.23.12-.22.22-.23.45-.33.22-.23.23-.11.11-.33,1.79-2.24.22-.23.12-.22.22-.23,3.14-4.59.11-.33.22-.12.11-.33.56-1.35.12-.44.11-.12.22-.33,4.15-6.61.11-.34.22-.11.11-.45.68-1.23.22-.45v-1.23l.22-.45,2.24-6.16.12-.22v-.22l.22-.34,2.58-5.26.22-.45-.22-.23-.12.12-.22.33-4.48,6.5-.22.33v.12l-.23.33-3.13,5.15-.23.34-.11.22-.22.34L724-775.49l-.22.23-.11.33-.11.23-1.24,2.24-.11.44-.22.12-.11.33-1.8,4.15-.11.33-.22.11-.11.45-5,9.52-.12.11-.44.79-.12.33-.11.23-.22.33-.79,1.68-.11.34-.11.22-.22.34L711-750.18l-.22.23v.33h.11Z" transform="translate(-404.32 817.38)"/><path class="cls-1" d="M766.41-726l-.11.11-.34.11-.89.9-.23.44v.23l.12.22v.11l-.12.34-.11.22-.45.23-.22.33-2,1.57-.33.34-.23.11L759-719.38h-.34v.12l-.33.22-.56.22h-.23l-.11.23-1.9.89.11.45-.34.11-7.28,2.8-.33.12-.45.22-2.58.78-.33.12-.11.11H744l-2,.56-.23.11h-.22l-.23.11-2.35.34h-.78l-2.91-.34h-.12l-.33-.11-1.57-.56L733-713l-1-.9-1-1h-.11l-.12-.11-.44-.22-.79-.9-.56-.45-.44-.22-.34-.34L727-719.6l-.45-.67-.11-.11h-.34l-.11-.12-.11-.22-.34-1-.22-1.57-.11-.22v-.11l-.12-.23-.11-.33v-.11l-.11-.23v-.22l.22-2.8V-728l.12-.22.67-1.68.11-.34.11-.11.11-.23,2-4.59.11-.33.34-.34,1.57-2.46.22-.45.22-.23.9-1.12.11-.11.11-.22.23-.23,2.46-2.57.56-.56,2.69-2.24.34-.34.33-.22,2.91-1.91.34-.22.11-.11.23-.11,2.79-1.35.68-.33,1.79-.68.34-.11h.11l.33-.11L750-752l.33-.11h.45l2.13-.34h.78l2,.12h.45l.22.11,1.46.67.45.22.22.23.78,1,.34.33.11.34.23.89v.23l.11.22.11.34.22.89.12.34v.11l-.12.9h-.22l-.34-.23-.22.23-.22.67-.12.67v.23l-.33.56-.23.22h-.22l-.34.22-.67,1.24-.11.22-.34.34-.33.22-.56.56-2,2.46-.11.23-.23.11-.11.22L752-735.62l-.22.12-.34.33-1.34.79-.23.11h-.22l-.11-.11v-.23l.11-.22.11-.34v-.22h-.11l-.11.11-.11.22-.23.12-.11-.12v-.22l.78-1.57v-.22h-.22l-.22.11-.56.22-.45.45-.11.34-.45.33h-.22v-.56l.11-.22,1-2.35v-.34l-.22-.22-.11-.23.11-.22.34-1,.33-.89.23-.45v-1l-.45-.11-.11.11-1.12.78-1.79,1.46-.23.11-.33.34-1.12,1.23-.12.11-.11.23-.22.22-2.13,2.58-.34.33-.11.23-1,1.45-.33.67-1,1.8-.22.22v.22l-.12.23-1.34,3-.11.23v.11l-1.35,4v.45l-.22,2.46v.67l.11.68.34.67,1,1,.33.22.23.11,1.12.23H739l.78.11.23.11.22-.11h.34l2.13-.56h.78l.11.11.23-.11h.33l3.7-1.23.22-.12h.23l.56-.11,7-3.13,2.13-1.35.34-.11.22-.11,1.46-.79h.33l.34-.22,1.23-.67.23-.23h.11l.33-.11.23-.22h.22l.11.22h-.11l-.22.23-1.91,1.12-.11.22-.45.22-1,.68-.34.33-.34.11L747-717.14l-.68.34h-1.12l-.11.11h-.22l-.23.11H744v.23l-.22.22-.23-.22v-.45l-.11-.11h-.11l-.56.22h-.34l-2.35.45-.22.11H739l-.22.11v.23h.11l.11.11h2.91l.9-.34H744l.23.12.22-.12h.22l2.24-.44.23-.12h.22l.23-.11,6.72-2.69,2.68-1.68h.12l.44-.11,1.23-.67.23-.22h.22l.34-.12,1.68-1.12h.22l.23-.11.33-.11L766-726.1h.34Zm-15-8.63h.34v.34h-.11l-.23.22-.11-.11-.11-.22h.11v-.12Zm5-4.59h.12l.11.11v.34l-.11.11-.12.22-2.69,2.69-1.12.79-.22.22h-.11l-.11.11h-.11l-.12-.11v-.22l.34-.34,3.81-3.7.22-.11Zm7.73,12.88h-.11v-.34h.67v.12l-.11.11-.22.11-.12-.11Z" transform="translate(-404.32 817.38)"/><path class="cls-1" d="M795.53-710.53l-.34.11-.22-.11h-.11l-.23-.11-.67-.22-.22-.12-.11-.11h-.34l-.11-.11h-.11l-.34-.11-1.12-.34h-.34l-.22-.11-1-.67-.22-.23-.23-.11-.67-.89-.11-.12v-.44l-.56-1.57v-.67l.9-6.84.11-.33v-.23l-.23-.22h-.11l-.22.22h-.11l-.34.34-5,4.82-.11.22-.45.22-1.9,1.68-.34.34v.11l-.11.11h-.11l-.23.23-1.45,1.12-.34.33-.56.34-.11.22h-.34l-.22.34v.11l-.11.11h-.23l-3.25,1.91-.22.22h-.45l-1.9.45h-.45c-1.45-.67-3.36-.56-4.59-1.46a4.56,4.56,0,0,1-1-1.68l-1-1.56a4.89,4.89,0,0,1-.22-2.24v-.12h-.11l-.23-.11v-.11l-.11-.11v-.23l.34-4v-.45l.11-.22.67-4.93v-.78l.56-1.57v-.45l.11-.33.9-3,.11-.33v-.34l.11-.22.11-.12.12-.22.11-.34.45-1.68.11-.11-.23-.45v-.22l.12-.34.11-.11v-.22l.11-.11v-.23l.11-.22.23-.23,1.45-3.47,1.57-3.13.22-.23.12-.22.22-.23,1-1.45.11-.23v-.11l.11-.11v-.34h.11l.23-.22.67-.9.22-.22h.23l.11-.11h1.23l.45-.23,1.34-1,.34-.12V-752h.11l.34.11-.11.12-.12.33-.11.11v.23l-.11.11v.34h.11l.11-.12.23-.11,1.23-1.45.11-.12.23-.11.11-.11h.11l.11.11h.11l.12.11v.12l.11.11v.22l-.11.23.11.22.11-.11.45-.23h.22l.23.12.44.56.12.22.11.11.11.23.22,1.12v.67l.12.67v.22l-.23.12h-.11v-.12h-.11l-.11-.33-.12-.11v.44h-.11l-.11.34-.45,2.13-.11.22v.23l-.67,2.46v.22l-.23.45L778.06-738v.11l-.23.23-.33,1.23-.11.22-.12.12-.11.33-1.34,3.7-.11.33v.12l-.67,2-.12.23v.22l-.11.22-.67,2.8c-.56,1.91-1.57,3.81-2.13,5.72-.45,1.56-.9,5.48,1.23,3.36l.45-.23.11-.22,1.57-1.12.22-.23h.23l.11-.22,1.68-1.23.11-.23.45-.22,3.25-3.14.33-.22,9.64-9.63.22-.11.11-.12.45-.33.11-.11-.33.67-.56.56-12,11.76-.11.22-.22.11-.23.23-1.68,1.45h-.11L775.37-718v.22l.11-.11.34-.11.22-.11.11-.12h.23l.45-.44.22-.12.67-.67H778v-.11h.22l.11-.22,1.35-1.24.22-.22.22.11-.22.23-1.12,1-1,1-.22.11-.11.12-.34.22-.45.45-1.79.89-.45.34-.11.22H774l-.23.23-1.12.56-.11.11v.22h.22l.12-.11.22-.11h.11l.34-.11.45-.11.22-.12h.22l.9-.44.11-.12.23-.11.22-.22,1.68-1.23.22-.12.23-.22.11-.22,1.57-1.24.56-.56,5.15-4.81v-.23l5.6-5.48.56-.56.34-.56.22-.12v-.33l.11-.11v-.12l.11-.11.12-.33.22-.34.11-.34V-734h-.11v-.45l.34-.33v-.45l.22-.22.56-.79.34-.45.11-.11.22-.45.23-.22,1.68-2.35,1.56-2.35.23-.23.11-.22.22-.23.79-.56.33-.33.34-.11h.22l.23-.12h.33l.34-.33h.22l.23.11.56.22h.11l.11.12.23.11.67.89.11.12v.67l.22.11.34.34v.44l-.56,3.25-.11.11-.11.23-.23.33-.56.56-.11.34-.11.11v.23l-.34,1.56v.23l-.11.22v.23l-1.12,5.37v.23L800-727.1v.44l-.45,2.47a7,7,0,0,0-.33,1.45c0,.79.56,1.35.78,1.91s0,1.45.56,2a3.33,3.33,0,0,0,1.9.9,4.73,4.73,0,0,1,1.24.11,2.25,2.25,0,0,0,1.45-.11l.34-.11.11-.11.22-.12,2.58-1.9.22-.22.23-.12.22-.22,3.59-2.91.22-.11,2.35-1.8.34-.22.11-.11h.22L816-726l.22-.12,2.8-1.56.34-.12.11.12h.11v.56l-.45.44-.11.23-5,4.37-.22.22-1.91,1.46-.11.22-2.8,2.24-.22.22h-.23l-.11.23-1.68,1.12v.11l-.34.22-1,.56-.23.34h.23l.11-.11.22-.11.9-.68h.22l.11-.11h.23l.11-.11v-.11l.34-.34h.11l.11-.11h.22l.23-.11.11-.23,1.68-1.12h.11l.45-.44v-.12h.23l.22-.22,1.23-1,.11-.22.45-.23.56-.56.11-.22.23-.11.22-.23h.11l.23-.22.22-.11.11-.23,3.59-3.36.44-.22.34-.34h.22l-.11.23-.11.11-.11.22-.23.23-3.13,3.25-.23.22-1.45,1.57-.23.33h-.22v.34l-.45.45-.67.78-.22.23-.23.11-.11.22-2.69,1.91-.11.11-.22.11-.34.22-.34.34-2.46,1.34-.34.23h-.11l-.11.11h-.34l-.22.22v.12h-.56l-.34.33h-.22v-.45h.45l.11-.11.22-.11,1.24-.78.67-.34,2.35-1.68.34-.34h.11l.11-.11v-.22l-.11.11-.45.22-1,.68-.11.22-.22.11-.34.11-3,1.68-.34.23v.11l-.67.22-.23.12-.11.11-.11.22v.11l-.22.23h-.23l-.11.11h-.11l-.11.22h-.12l-.11.12-.11.22-.22.11-1.57.9-.34.11-.11.11h-.22l-2.58.23-.45-.23Zm18.14-9.41h.23l.67-.67h.11v.11l-.11.12-.56.44-.22.23-.23-.11Z" transform="translate(-404.32 817.38)"/><path class="cls-1" d="M830.92-705.38l-.34-.11-3-.56-.33-.11-.12-.11-1-.34-.45-.22-.23-.23-2.35-1.68-.33-.11-.12-.11-1-.34-.33-.33-.22-.34-.12-.33-.11-.12h-.45v-.11h-.11l-.11-.33V-712l-.11-.23-.11-.33-.34-1.12-.22-.12v.9l-.23.11h-.11v-.11l-.11-.22-.11-.12-.12-.22V-714l-.56-3.58v-2.69l-.11-.34-.22-1.34v-.23l-.11.23-.34,2.35v.22l.11.34v3.14l-.22.22-.23-.22v-.23l-.11-1.57v-.89l.34-6.39v-.56l.11-.22.22-.9v-.56l.12-.44.33-2.47.11-.33V-731l.56-2.36v-.56l.12-.33.89-3,.11-.22v-.56l.56-2.13.12-.33v-.23l1.45-4.37.11-.22v-.34l.34-.78.11-.34.11-.22v-.34l.9-2.35.11-.33.11-.12v-.44l2.24-5.72.23-.33.22-.45,2.58-5.71.22-.23.11-.22v-.34l.45-.56.11-.33.12-.23.22-.33.11-.23.11-.33v-.23l.23-.33,1.34-2.47.11-.33.12-.23h.11l.11-.11.22-.45,1-1.79.11-.33L834-772l.22-.33,2.69-6.61.11-.34.22-.22.12-.34,4-7,.22-.23.11-.22,8-11.54.23-.22.11-.22.23-.23,1.12-1.57.22-.22.22-.11.23-.23,2.8-3.36.33-.22.12-.11.44-.23,2.8-1.67.23-.12h.56l2.69-.44h.89l1.79.56H865l.22.11.23.22,1,.78.34.23.11.22v.23l.79,2.91v.33l.11.34-.11.34-.34,4.7v.22l-.22.68-.34,1.56-.11.34-.11.22-.23.34-1,3.58-.12.34v.22L865-789l-1.23,2.46-.12.45-.11.11-.11.45-1.9,2.91-.23.45v.11l-.22.34-3.59,5.26-.22.34-.11.22-.34.12-4.92,5.48-.12.23-.44.45-.34.56-.22.33-.12.11-.11.34-9.18,12.54-.11.23-3.81,4.93-.23.44L836-748.5l-.22.23-.23.45-2.12,3.47-.12.33-.11.12-.11.33-.34.67v.45l-.11.11-.56,1.12-.11.34-.11.22-.11.34-1.24,4.14-.11.45-.11.11v.45l-1.34,5.71-.12.34v.56l-.78,5.71v.56l-.11.23v5l.11.22v.34l.34,2.12.11.34.11.22.11.34.45,1,.22.33v.12l.23.33.56.67.22.34.11.11.34.11,1.34.9.23.11h.56l2.24.34h.56l.33-.11,2.58-.68.22-.11h.23l.33-.22,1.24-.9.33-.22.34-.34,2.35-1.79,3.7-3.14.33-.22.11-.22.23-.12,1.56-1.56.23-.12,1.57-1.45.33-.23h.12l.22-.22.22-.11.23-.23h.33v.34l-.11.34-.22.44-.23.23-4,4.25-.33.34-.12.22-.22.12-2.91,3.58-.23.11-.11.23-.33.22-2.13,1.79-.34.34-.33.22-2.92,1.57-.33.11h-.23l-.33.11-2.24.9-.34.11h-.45l-2.91.11Zm3.25-44.35.78-1.45.23-.12.22-.33,2.58-4,.22-.23.11-.22.23-.23.45-.33.22-.23.22-.11.11-.33,1.8-2.24.22-.23.11-.22.23-.23,3.13-4.59.12-.33.22-.12.11-.33L846-767l.11-.44.12-.12.22-.33,4.14-6.61.12-.34.22-.11.11-.45.67-1.23.23-.45v-1.23l.22-.45,2.24-6.16.11-.22v-.22l.23-.34,2.57-5.26.23-.45-.23-.23-.11.12-.22.33-4.48,6.5-.23.33v.12l-.22.33L849-778.74l-.22.34-.11.22-.23.34-1.23,2.35-.22.23-.11.33-.12.23-1.23,2.24-.11.44-.22.12-.12.33-1.79,4.15-.11.33-.22.11-.12.45-5,9.52-.11.11-.45.79-.11.33-.11.23-.22.33-.79,1.68-.11.34-.11.22-.23.34-1.34,2.46-.22.23v.33h.11Z" transform="translate(-404.32 817.38)"/><path class="cls-1" d="M880.42-712l-.33-.12h-.56l-2.47-.67-.33-.11-.23-.22-.33-.12-2.58-1.45-.33-.23L873-715l-.22-.33-1.12-1.12-.34-.23-.11-.22-.11-.34-.9-1.79-.11-.34v-.22l-.11-.34-.11-1-.34-1.35v-.22h-.45l-.11.11-.34.22-5.6,4.6-.33.22-.45.22L858-714.78l-.44.22-.34.22-1.46.34h-.22l-.34.11h-.33l-1.57-.22-1.34-.56-.34-.11-.45-.45L849.51-717l-.11-.23-.22-.89-.12-.34-.11-.22-.22-.23-.11-.22.11-3.36.11-.34v-.67l.56-2.69v-.89l.11-.34-.11.22-.22.34-.12.22-.11.34v.9l-.11.33v.34h-.34l-.11-.11v-2l.23-.34.22-.56.11-.33.11-.23.12-.33,1.12-2.8.11-.79-.11-.22v-.22l.11-.68,2.69-4.48.22-.44v-.12l.22-.33,2-2.8.22-.34.45-.45,3.25-2.8.23-.33.22-.23.33-.11,2.58-1.57.34-.11.22-.11.34-.22,2.57-.79.45-.22h.56l2-.11h.44l.23.11.45.11,2.91.78h.22l.45.23,3.36,1.12.45.11.11.22.45.12.89,1,.34.34.11.22.23.34.56,1.23.22.34v.33l-.11.34-.34.9-.11.44-.11.23-.23.33-1.79,2.24-.11.34-.11.22-.11.12v.11l.11.22.11.11.67.34.34.22.11.23v.33l-.22,1.12.56,1.46v.22l-1.12,4.15-.12.33-.22,4.26v.34l.78,3.92.12.44.11.12.11.44,1.12,2.24.22.34.12.22.33.12,1,.44.34.23h.67l1.79-.34.45-.11h.67l.34-.11,1.9-.11h.78l.34-.12,4.48-2,.45-.23h.11v.45l-.22.23-.68,1-.22.12-.22.33-1.46,1-.11.22-.23.12v.44l-.11.12-.11.22-.34.22-3,1.24-.34.22h-.22l-.45.11-1.23.11h-.56l-.22.23h-.56Zm-23.74-8.85,3-2.13.33-.34h.11l.34-.33,3.25-2.91.22-.12.56-.56,6.94-6.72.34-.22.11-.22.34-.12,3.47-2.68.45-.45.11-.34.56-1.23v-.34l-.67-.67-.23-.11H874.6l-.22.11H874l-1.9.45-.34.22h-.34l-.33.12-1.57.67-.34.22-.22.11-.34.12-2.35,1.68-.33.22-4.82,4.82-.22.33-3.14,4.82-.22.33-.12.12-.22.44-1.12,2.92-.11.44-.11.12v1l.11.23.11.11v.11h.11Z" transform="translate(-404.32 817.38)"/><path class="cls-1" d="M903.38-705.49l-.33-.11h-.34l-.22-.22-2-.79-.22-.22-.23-.11-.33-.23L898-709l-.34-.34-.11-.22-.11-.34-1.57-2.35-.22-.45-.12-.33-.22-.45-1.23-4.14V-718l-.11-.34v-.45l-.34-3.92-.11-.56v-.78l.33-5.94v-.89l.12-.45.89-7.73.11-.56.12-.45v-.33l1.11-4.71.12-.56V-746l.11-.34,1.23-4.48.23-.56.11-.33.11-.45,1.23-4.37.23-.45.11-.33v-.12l.22-.33.11-.11.12-.34.11-.45.11-2.24.11-.56v-.33l.23-.45,2.35-5.71.11-.45.11-.23.34-.44.33-.79.12-.45.11-.22.22-.34,2-3.92v-.56l.11-.22.11-.34v-.67l-.34-.33-.67-.12h-.89l-5.83.9h-.33l-.67.22-3.36.56-.45.23L894-775l-.34.22-.78.45-.34.11h-1.23l-.11-.11-.23-.11-.11-.34-.11-.11V-776l.11-.33,1-.68.22-.11.34-.22,2.91-1,.45-.11.22-.11.34-.12,8.06-1.45h.34l2.8-.56.22-.23.11-.11-.11-.11v-.22l.11-.12.23-.11,1.12-.78.45-.23.11-.11.11-.22H910l.11-.23.23-.11.11-.22.45-.23.33-.22.23-.34.11-.22,2.13-3.47.11-.23.22-.33.23-.45,8-12.43.22-.23.23-.44,2.35-3.48.33-.44.12-.12.22-.56,3.36-4.14.22-.34.12-.22.33-.34.23-.33.33-.11.23-.11.33-.23.79-.34h.33l.23-.11.45-.11.78-.11.45-.11H934l.11-.12h.11l.11-.11h.12l.33-.11.56.11h.23l.33.11h.23l.45.12.22.22.33.67.68,1.91.33,1.34V-807l-.11.45-.22.78-.11.34-.23.33-.22.45-4.48,5.71-.56.57-.23.33-4,5.71-.22.45-.56.56-2.24,4.14-.23.45-.22.34-.11.45v1.56l.11.23.11.33h.11l-.11.23-.78.78h.33l2.8-.11L961-783.1l.34.11,4.14.67.34.11.11.11h.45l1.45.56.34.12.22.11.12.22.11.11v.34l-.23.22-1.45,1-.23.11-.33.12H966l-10.3-.12-32.71.45-.33.11h-.23l-.33.12-1,.67-.11.22-.34.23-.22.56-.23.22-.22.11-.11.11-.23-.22v-.67l-.11-.11v-.12h-.22v.12l-.12.22-.67,1-.22.45-.11.44-.23.34-.89,2.35-.23.34-.11.22-.22.11v.23l-.23.33-.44,1.12-.34.34-.11.22v.56l-3.47,8.85-.23.34-.11.22v.45l-.11.22v.56l-1.12,3-.12.33-.11.45-.22.45-1.57,4.59-.22.45v.34l-.11.44-.68,2.24-.11.56L907-745l-1,3.24-.11.45-.11.23-.12.56-.56,2L905-738l-.22.45v.78l-.23.56-.89,3.36v.45l-.11.34-.12.45-.44,3-.12.56-.11.34v.44l-.45,4.93-.11.45v.78l.34,2.24v.79l.11.45.45,1.56.11.56.22.23.23.33,1.57,2.13.11.34.22.22.34.11,1.34,1.24.34.22.22.11h.34l3.36-.45.22-.11h.56l.79-.45.22-.11.34-.11.22-.34,4.48-3.69.34-.23.22-.11.33-.45,2.81-3.13.33-.23.23-.22.22-.34,1.79-2.12,2.35-2.58.23-.34.22-.11.34-.45.56-.44.33-.12h.23v.34l.11.11H929l.22-.22.45-.67.34-.34.22.22v.34l-.11.22-.22.56-.11.34-.23.22-.22.45-1.24,1.68-.22.34-.11.33-.22.34-.34.78-.11.34v.11h.11l.22-.11h.23v.34l-.11.22-.34.34-2,2.68-.33.34-.23.11L923.43-716l-.22.45-.23.11-.33.34-3.7,3.25-.33.22-.23.23-.33.22-3.7,2.35-.23.11-.22.23-.33.11-5.27,2.8-.33.11h-.23l-.22.11Zm-.22-57.34.11-.23.11-.11v-.78l.12-.23,1-2.68.56-1.12.34-.79.45-.45V-770l.11-.34h.22l.11-.22.12-.34.11-.44,2.13-4,.22-.44v-.68h-.22l-.11.23-.34.33-.11.34-.23.22-.11.45-3.58,7.28-.56,1.12-.23.67-.33.68v.44l-.34,1.8v.33l.11.11Zm10.42-21.62.55-1,.12-.33.11-.23.11-.11v-.22l-.22-.23-.12.12L914-786l-.78,1.12-.11.34v.34Zm12.32.23-.45-.12h.45l4.59-.22h.56l.22.11.11.11h-.11l-.45.23h-.56Z" transform="translate(-404.32 817.38)"/><path class="cls-1" d="M970.7-739.54h-.23l-.22.12-.45.44H969l-.89.23-.34.11-.22.11-.34.11-4.93,1.24-.22.44-.33.34-.12.22v.23l-.11.11-.34.22-1.79.79-.33.22-.12.11-.22.34-2.8,5.26-.11.23-.22.22-.12.34-2.24,3.47-.22.22-.11.23-.23.33-2.24,2.8-.56.45-.11.23-2.91,3-.45.45-.34.22-2.68,2-.23.22-.22.11-3,1.57-.23.11h-.34l-.33.12-2.58.56-.33.11h-.23l-2.24-.56-.45-.23h-.11v-.11H933l-.11-.11h-.9l-.22-.11h-.34l-.33-.23h-.11l-.12-.11.23-.22h.33l.34.11.22-.11-.11-.23h-.22l-.23-.11-.56-.11-.22-.11-.56-.34-1.12-1.12-.22-.33-.12-.12-.22-.33-.67-1.35v-.11l-.11-.45-.12-1.45-.11-.23v-.33l-.11-.34-.45-1.45-.11-.34v-3.14l.11-.33.79-4.15.11-.44v-.23l.22-.45.67-2.24v-.22l.23-.34.33-.56v-.56l1.12-1.12v-.11l.23-.33.89-1.8.12-.33.22-.56.33-1.91.34-.56.11-.33,1-1,.56-.9.45-.78.11-.34.34-.56,3-3.58.11-.34.34-.56.56-.89.22-.23v-.33l.34-.23,2-2.24.33-.22.11-.11.34-.23,2.35-1.68.45-.44.34-.12,1.34-1.23.45-.45.33-.11,1.68-.78.56-.23h2.24l.45.12,4.48,2.35.34.22.45.23.22.33.34.11.11.12h.22l.11.11.34.22,1.12.9.45.45.22.33,1,2.24.22.56v.34l.45,2.46.11.34v.33l-.11.34-.34,2.91v.34l-.11.33v.34l-.56,2-.11.44v.12l.11.22v.22h.12l.11.12.33.11h2.69l.22-.11.45-.12,3.47-1.45,2.13-1,1.46-1.12,1.34-1.46,1.12-1,.11-.12.12-.22.22-.22,1.12-1.68.11-.23v-.11l.11-.34,1-1.12L978-751v-.11l.12-.56.33-.56v-.23l.23-.33V-753l.78-2-1.12-.67L978-756l-.11-.34-.22-.22v-.22l-.22-.23-.12-1v-.67l.56-1.57v-.22l.11-.22v-.23l.79-1.79.22-.34v-.22l.23-.22.56-.9.22-.34.11-.11.11-.33,1.68-2.13,1.91-1.91.22-.11.11-.22.23-.23.89-.67.34-.11.11-.22.45-.12,1.23-.78.34-.11.22-.11h.23l1.45-.34.34.11h.11l.22.11.34.12h.67l1.46-.12.22-.11v.79l-.11.22v.11l.11.11h.34l.56-.11.22-.11.11.11v.23l.45.44H995l.22.45-.22.11h-.23l-.44.23-.23.33L994-769l.11.22-.11.11-.22.45h-.23l-.11.11h-.11l-.23.45-.55,1.23-.12.34-.11.11.11.11v.56l-.22.34-.45.78-.33.34-.12.22-1.68,2.36-.11.33-.11.11-.11.34-1.68,3.14v.56l.22.67.11.22v.11l.34.12.67.44.11.12,3.48,2.24.22.22.22.11.9.9.22.33.23.34.78,1.46.11.33.11.11.12.34.33.78v.9l.11,3v.79l-.11,1.34v.67l-.78,1.68-.11.34-.23.45-1.79,3.69-.22.45-.23.23-.11.44v.23h.11v-.23l.23-.22.89-1.57,1.46-2.91.22.11v.11l-.11.23-4.93,9.29-.11.23h-.22v-.11L990-729l.89-1.68L991-731l-.12-.12h-.11v.12l-.11.11-.11.33-2.58,4.71-.11.33-.11.12-.22.33-3.92,6.83h-.23v-.22l.11-.34.67-1.34v-.34h-.44l-.23.23-1,1.79-.12.22v.23l-.11.33v1.24l.11,1.56v.45l.23.23.89.78.12.22.44.23,1.35.78.22.11h-.34l-.67.23v.33h.34l1.9.23h.34l.22-.11h.34l1.57-.45h.33l.11-.11.34-.12,2.8-1.23.22-.22.45-.23,2.69-1.68.23-.11.44-.45.45-.22.11-.22.23-.12.11-.11H998l.34-.33.22-.12,5-4.48.34-.33.22-.11v-.12h.79l.22.12v.11l-.11.22-1.23,1.79-.23.23v.11l-.33.22-1.57,1.57-.22.11-.34.34-2,1.57-.11.22-.22.11-.45.45-.23.11-4.36,3-.23.11-.11.11-.34.11-1.67.9-.23.11H991l-.9.45-.34.11h-.11l-.33.11-4.15,1.24-.33.11h-.23l-.33.11-1.35.11h-.56l-.22-.11-2.69-.67-.34-.11-.11-.12-.33-.11-.56-.45-.23-.11-.11-.11-.22-.34-1.46-2.8-.11-.33-.22-.11-.12-.12-.22-.44-.11-.12-.12-.33-.33-1.35v-.22l-.11-.22v-.23l-.23-3.58v-.45l.12-.34L975-723l.11-.34v-.44l1.12-3.48v-.22l.11-.22.12-.12,1.68-4.14.22-.34v-.11l.11-.33,2.91-5.94.12-.34.33-.33,1.46-2.91.11-.12v-.33l.11-.23,1.12-2.12.45-.68.11-.33v-.23l.11-.22.79-1.68.11-.34.11-.11v-.67l-.11-.22-.22-.12-.56-.44-.23-.12-.11-.22-.33-.22-.68-.68-.33-.11-.11-.11H983l-.11.11-.22.11-.79,1.91-.11.33-.11.12-.22.33-1.68,1.91-.23.22v.11l-.22.23-3.14,2.8L976-743l-.34.34-2.57,1.79Zm-43.12,14v-.11l.11-.33.67-3,.11-.33v-.23l.11-.45v-.22h-.11l-.45.45-.22,1.23-.22.56v.34l-.12,2v.23ZM936-717.7l.34-.11.23-.22.44-.23.23-.33.22-.11.11-.34.9-1.46.22-.33.23-.56,2.35-5.83.22-.56.12-.44,2.35-6.72.11-.23v-1.23l-.11-.34-.23-.22-1.45-1.34-.23-.23-.22-.11h-.34v-.11l-.11-.23v-.22l-.11-.22L939.67-741l-.45-.23h-.33l-.45.23-.34.22-.33.34-.23.33-.11.12-.22.44-.79,1.24-.45,1-1.34,3.36-.34.56-.78,3.14-.11.34-.11.22-.12.34-.55,3.47v.33l-.12.23v3.69l.12.23.67,2,.11.23.22.33,1,.79.56.33Zm9.3-21.84.34-.22.33-.11.11-.23.23-.22.11-.22.45-1.35.11-.45v-.11l.11-.45.23-1.79.11-.45v-.56l.11-1.45-.11-.34v-.22l-.23-.34-.33-.22h-.34l-.56.11-.33.11-.11-.11v-.22l.11-.12v-.11l-.11-.11-.12.11-.11.23-.33.44-.23.45v.23l-.11.11-.11.22-.45.23-.11.22-.11.11v.45l-.12.11v.11l-.22.23-.23.11-.11.22v.23l-.11.22-.22.11-.23.45-.33.23-.12.22v.67l.23.11h.11l.11.23v.78l.23.23.33.44.23.34.89.9.34.22.45.22Zm3.81-6.72.11-.22.11-.34.12-.67V-748l-.23-.45h-.11l-.22.12v.11l-.12.11v1.9Zm36.62,33.72-.11-.12h-.34l-.11.12v.11l.11.11v.11h.23l.11.11Zm2.13-12.21.11-.23v-.22l.11-.22.12-.12.11-.33,1-1.79.11-.12h.22v.12l-.11.22L988.05-725l-.11.23-.11.11Zm.67-7,.12-.22.22-.22,1.79-3.48,1.23-2.46v-.67l-.22.33-.34.68-.11.33-.11.11-.23.34-2.35,4.7-.22.34v.34h.11Zm4.82-8.84.22-.23.34-1,.11-.11.11-.22-.22-.23h-.22l-.12.34-.56,1.12v.45h.34Z" transform="translate(-404.32 817.38)"/></svg>