<svg id="Layer_1" data-name="Layer 1" xmlns="http://www.w3.org/2000/svg" viewBox="0 0 373.72 151.85"><defs><style>.cls-1{fill:#fff;}</style></defs><title>vindicia-the-subscription-people</title><path class="cls-1" d="M72.31,131.69h3.21l6.63,17.2H78.92l-1.62-4.55H70.43l-1.61,4.55H65.71Zm-1.06,10.36h5.26l-2.58-7.4h-.08Z" transform="translate(-3.06 -1.99)"/><path class="cls-1" d="M83.25,136.43h2.6v1.83l.05.05a4.46,4.46,0,0,1,3.88-2.21c2.7,0,4.41,1.44,4.41,4.24v8.55H91.45v-7.83c0-1.95-.82-2.8-2.44-2.8a3,3,0,0,0-3,3.28v7.35H83.25Z" transform="translate(-3.06 -1.99)"/><path class="cls-1" d="M107.81,131.69H111l6.63,17.2h-3.23l-1.61-4.55h-6.87l-1.62,4.55H101.2Zm-1.06,10.36H112l-2.58-7.4h-.07Z" transform="translate(-3.06 -1.99)"/><path class="cls-1" d="M118.75,136.43h2.6v1.74h.07a4.17,4.17,0,0,1,3.83-2.07,3.54,3.54,0,0,1,3.5,2.07,4.5,4.5,0,0,1,3.9-2.07c2.63,0,4.17,1.15,4.17,4.19v8.6h-2.74v-7.27c0-2-.12-3.36-2.27-3.36-1.86,0-2.65,1.23-2.65,3.33v7.3h-2.75v-8c0-1.71-.53-2.63-2.19-2.63-1.42,0-2.73,1.16-2.73,3.23v7.4h-2.74Z" transform="translate(-3.06 -1.99)"/><path class="cls-1" d="M151.31,148.89H148.7v-1.68h0a4.12,4.12,0,0,1-3.85,2c-3.93,0-5.83-2.92-5.83-6.65,0-4.51,2.67-6.48,5.39-6.48a4.79,4.79,0,0,1,4.15,2h.05v-6.36h2.75Zm-6.15-1.83c2.46,0,3.49-2.24,3.49-4.41,0-2.75-1.32-4.39-3.44-4.39-2.58,0-3.5,2.29-3.5,4.54S142.77,147.06,145.16,147.06Z" transform="translate(-3.06 -1.99)"/><path class="cls-1" d="M153.57,142.65c0-3.81,2.29-6.55,6.29-6.55s6.29,2.74,6.29,6.55-2.29,6.58-6.29,6.58S153.57,146.48,153.57,142.65Zm9.83,0c0-2.14-1.08-4.39-3.54-4.39s-3.54,2.25-3.54,4.39,1.08,4.41,3.54,4.41S163.4,144.82,163.4,142.65Z" transform="translate(-3.06 -1.99)"/><path class="cls-1" d="M176.7,140.6a2.63,2.63,0,0,0-2.84-2.34c-1.42,0-3.42.75-3.42,4.54,0,2.07.91,4.26,3.3,4.26a3,3,0,0,0,3-2.84h2.75c-.51,3.23-2.51,5-5.71,5-3.91,0-6.05-2.77-6.05-6.43s2.05-6.7,6.15-6.7c2.89,0,5.35,1.44,5.61,4.5Z" transform="translate(-3.06 -1.99)"/><path class="cls-1" d="M183.62,144.89c.14,1.59,1.35,2.17,2.82,2.17,1,0,2.84-.21,2.77-1.64s-2.07-1.61-4.07-2.07-4-1.16-4-3.69c0-2.72,2.94-3.56,5.2-3.56,2.56,0,4.87,1.06,5.21,3.83h-2.87c-.24-1.3-1.32-1.67-2.53-1.67-.79,0-2.27.2-2.27,1.28,0,1.35,2,1.55,4.05,2s4,1.18,4,3.64c0,3-3,4-5.57,4-3.13,0-5.47-1.4-5.52-4.34Z" transform="translate(-3.06 -1.99)"/><path class="cls-1" d="M211.79,137.16a4.12,4.12,0,0,0-4.29-3.43c-3.69,0-5.23,3.26-5.23,6.56s1.54,6.56,5.23,6.56c2.68,0,4.15-2,4.39-4.51h2.94a7,7,0,0,1-7.33,7c-5.16,0-8.24-4.09-8.24-9s3.08-9,8.24-9c3.88,0,6.94,2.16,7.3,5.88Z" transform="translate(-3.06 -1.99)"/><path class="cls-1" d="M216.46,142.65c0-3.81,2.29-6.55,6.29-6.55s6.3,2.74,6.3,6.55-2.3,6.58-6.3,6.58S216.46,146.48,216.46,142.65Zm9.84,0c0-2.14-1.09-4.39-3.55-4.39s-3.54,2.25-3.54,4.39,1.09,4.41,3.54,4.41S226.3,144.82,226.3,142.65Z" transform="translate(-3.06 -1.99)"/><path class="cls-1" d="M231.19,136.43h2.6v1.74h.07a4.17,4.17,0,0,1,3.84-2.07,3.53,3.53,0,0,1,3.49,2.07,4.5,4.5,0,0,1,3.9-2.07c2.63,0,4.17,1.15,4.17,4.19v8.6h-2.74v-7.27c0-2-.12-3.36-2.27-3.36-1.85,0-2.65,1.23-2.65,3.33v7.3h-2.75v-8c0-1.71-.53-2.63-2.19-2.63-1.42,0-2.72,1.16-2.72,3.23v7.4h-2.75Z" transform="translate(-3.06 -1.99)"/><path class="cls-1" d="M252.08,136.43h2.6v1.69h0a4.17,4.17,0,0,1,3.86-2c3.93,0,5.83,3,5.83,6.62,0,3.35-1.69,6.51-5.37,6.51a4.85,4.85,0,0,1-4.17-1.95h0v6.22h-2.75Zm6.15,1.83c-2.32,0-3.5,1.76-3.5,4.42,0,2.5,1.28,4.38,3.5,4.38,2.5,0,3.44-2.22,3.44-4.38S260.49,138.26,258.23,138.26Z" transform="translate(-3.06 -1.99)"/><path class="cls-1" d="M277,146.12c0,.68.15.94.65.94a3.71,3.71,0,0,0,.68-.05v1.91a7.13,7.13,0,0,1-1.74.31c-1.1,0-1.9-.38-2.12-1.52a6.38,6.38,0,0,1-4.31,1.52c-2.24,0-4.27-1.2-4.27-3.64,0-3.11,2.49-3.61,4.8-3.88,2-.36,3.74-.14,3.74-1.76,0-1.42-1.48-1.69-2.58-1.69-1.55,0-2.63.63-2.75,2h-2.75c.19-3.2,2.92-4.14,5.66-4.14,2.44,0,5,1,5,3.61Zm-2.74-3.47c-.85.56-2.17.53-3.38.75s-2.24.63-2.24,2.07c0,1.23,1.57,1.59,2.53,1.59,1.21,0,3.09-.63,3.09-2.36Z" transform="translate(-3.06 -1.99)"/><path class="cls-1" d="M279.84,136.43h2.6v1.83l.05.05a4.46,4.46,0,0,1,3.88-2.21c2.7,0,4.41,1.44,4.41,4.24v8.55H288v-7.83c-.05-1.95-.82-2.8-2.44-2.8a3,3,0,0,0-3,3.28v7.35h-2.75Z" transform="translate(-3.06 -1.99)"/><path class="cls-1" d="M292.16,136.43h3l3.25,9.31h.05l3.16-9.31h2.87l-4.85,13.14c-.89,2.24-1.54,4.26-4.41,4.26a11.89,11.89,0,0,1-1.9-.14v-2.31a8.12,8.12,0,0,0,1.3.17c1.27,0,1.59-.68,1.93-1.74l.31-1Z" transform="translate(-3.06 -1.99)"/><polygon class="cls-1" points="57.61 0 57.61 8.45 63.41 11.91 57.61 15.38 57.61 23.83 76.08 11.91 57.61 0 57.61 0"/><polygon class="cls-1" points="14.45 31.63 26.95 60.53 40 31.63 54.45 31.63 26.95 88.34 0 31.63 14.45 31.63 14.45 31.63"/><path class="cls-1" d="M369.83,34H371c.74,0,1.26-.11,1.26-.89s-.74-.81-1.33-.81h-1.08V34Zm-1.29-2.7H371c1.63,0,2.55.51,2.55,1.91A1.63,1.63,0,0,1,371.82,35l1.73,2.84h-1.34L370.62,35h-.79v2.78h-1.29V31.31Zm2.31,7.8a4.55,4.55,0,1,0-4.37-4.56,4.39,4.39,0,0,0,4.37,4.56m0-10.33a5.79,5.79,0,1,1-5.94,5.77,5.73,5.73,0,0,1,5.94-5.77" transform="translate(-3.06 -1.99)"/><polygon class="cls-1" points="202.78 0.17 202.78 8.62 208.57 12.08 202.78 15.55 202.78 24 221.25 12.08 202.78 0.17 202.78 0.17"/><polygon class="cls-1" points="285.95 0.21 285.95 8.66 291.74 12.12 285.95 15.59 285.95 24.04 304.42 12.12 285.95 0.21 285.95 0.21"/><polygon class="cls-1" points="57.57 31.64 73.04 31.64 73.04 88.34 57.57 88.34 57.57 31.64 57.57 31.64"/><path class="cls-1" d="M83,33.63h14.8v7.89h.33a20,20,0,0,1,17.33-9.43c16.56,0,20.73,9.32,20.73,23.37V90.33H120.6v-32c0-9.32-2.64-13.93-10-13.93-8.45,0-12.07,4.72-12.07,16.24V90.33H83V33.63Z" transform="translate(-3.06 -1.99)"/><path class="cls-1" d="M170.17,43.84c-10.2,0-13.71,8.88-13.71,18.09,0,8.89,4.06,18.21,13.71,18.21,10.2,0,13.37-9,13.37-18.31s-3.28-18-13.37-18m13.6,39.25h-.23c-3.61,6.15-9.86,8.78-17.21,8.78-17.11,0-25.44-14.58-25.44-30.37,0-15.25,8.45-29.4,25.11-29.4,6.7,0,13.27,2.85,16.78,8.44H183V2.19h15.58V90.34H183.77V83.09Z" transform="translate(-3.06 -1.99)"/><polygon class="cls-1" points="202.81 31.66 218.28 31.66 218.28 88.35 202.81 88.35 202.81 31.66 202.81 31.66"/><path class="cls-1" d="M267.55,53.59c-1-6.48-4.82-9.76-11.52-9.76-10,0-13.26,10.09-13.26,18.42S246,80.12,255.7,80.12c7.35,0,11.41-4.49,12.4-11.51h15c-2.08,15-12.28,23.25-27.31,23.25-17.1,0-28.62-12.06-28.62-29.07,0-17.65,10.53-30.7,28.95-30.7,13.39,0,25.77,7,26.65,21.5Z" transform="translate(-3.06 -1.99)"/><polygon class="cls-1" points="285.98 31.65 301.44 31.65 301.44 88.37 285.98 88.37 285.98 31.65 285.98 31.65"/><path class="cls-1" d="M348.05,62.6c-2.63,2.3-8.12,2.41-12.94,3.28s-9.21,2.64-9.21,8.35,4.49,7.23,9.54,7.23c12.17,0,12.61-9.54,12.61-13V62.6Zm-36-11.52c.89-14.48,13.93-19,26.66-19,11.29,0,24.89,2.52,24.89,16.12v29.5c0,5.15.55,10.31,2,12.61H349.8a24,24,0,0,1-1.1-5.48c-4.93,5.15-12.05,7-19.07,7-10.86,0-19.31-5.38-19.31-17,.22-25.77,38.38-11.94,37.73-24.67,0-6.58-4.61-7.68-10.09-7.68-6,0-9.76,2.42-10.31,8.56Z" transform="translate(-3.06 -1.99)"/><path class="cls-1" d="M26.32,101.69V104H19.77v17.14H17.1V104H10.55v-2.32Z" transform="translate(-3.06 -1.99)"/><path class="cls-1" d="M28.43,101.63h2.38v7.26a6.86,6.86,0,0,1,1.53-1.51,5.07,5.07,0,0,1,2.87-.76q3.09,0,4.19,2.16a7.34,7.34,0,0,1,.6,3.27v9.1H37.54v-8.94a5.07,5.07,0,0,0-.39-2.29,2.55,2.55,0,0,0-2.44-1.17,4.05,4.05,0,0,0-2.69,1c-.8.68-1.21,2-1.21,3.86v7.52H28.43Z" transform="translate(-3.06 -1.99)"/><path class="cls-1" d="M52.28,107.36a5.35,5.35,0,0,1,2.15,1.83,6.48,6.48,0,0,1,1,2.5,16.63,16.63,0,0,1,.21,3.13H45.27a6.1,6.1,0,0,0,1,3.47,3.36,3.36,0,0,0,2.93,1.31,3.78,3.78,0,0,0,3-1.23A4.24,4.24,0,0,0,53,116.7h2.35a4.89,4.89,0,0,1-.62,1.74A6.4,6.4,0,0,1,53.61,120a5.43,5.43,0,0,1-2.67,1.43,7.67,7.67,0,0,1-1.94.22,5.94,5.94,0,0,1-4.46-1.93,7.55,7.55,0,0,1-1.83-5.4,8.17,8.17,0,0,1,1.84-5.55,6.08,6.08,0,0,1,4.82-2.13A6.31,6.31,0,0,1,52.28,107.36Zm.86,5.57a6.27,6.27,0,0,0-.67-2.48,3.43,3.43,0,0,0-3.25-1.72,3.59,3.59,0,0,0-2.73,1.18,4.47,4.47,0,0,0-1.17,3Z" transform="translate(-3.06 -1.99)"/><path class="cls-1" d="M68.19,114.87a5.48,5.48,0,0,0,.75,2.69c.84,1.29,2.33,1.94,4.45,1.94a7.48,7.48,0,0,0,2.61-.43,3,3,0,0,0,2.27-2.94,2.55,2.55,0,0,0-1-2.26,9.55,9.55,0,0,0-3-1.16l-2.55-.59a11.42,11.42,0,0,1-3.55-1.29,4.11,4.11,0,0,1-1.79-3.64,5.73,5.73,0,0,1,1.76-4.31,7,7,0,0,1,5-1.68,8.5,8.5,0,0,1,5.06,1.48,5.4,5.4,0,0,1,2.08,4.72H77.79A5.13,5.13,0,0,0,77,105a4.64,4.64,0,0,0-3.93-1.52,4.42,4.42,0,0,0-3.21,1,3.13,3.13,0,0,0-1,2.28A2.24,2.24,0,0,0,70,108.83a15.66,15.66,0,0,0,3.42,1.06l2.65.62a8.15,8.15,0,0,1,3,1.24,4.67,4.67,0,0,1,1.8,4,5,5,0,0,1-2.3,4.62,10,10,0,0,1-5.33,1.39,7.87,7.87,0,0,1-5.54-1.85,6.34,6.34,0,0,1-2-5Z" transform="translate(-3.06 -1.99)"/><path class="cls-1" d="M86.63,107v9.42a4.13,4.13,0,0,0,.33,1.78,2.34,2.34,0,0,0,2.31,1.27,3.25,3.25,0,0,0,3.3-2.23,9,9,0,0,0,.48-3.27v-7h2.39v14.19H93.18l0-2.09a4.69,4.69,0,0,1-1.13,1.36,4.88,4.88,0,0,1-3.25,1.12q-3,0-4.06-2a6.12,6.12,0,0,1-.58-2.9V107Z" transform="translate(-3.06 -1.99)"/><path class="cls-1" d="M99.13,101.63h2.32v7.06a5.3,5.3,0,0,1,1.88-1.56,5.21,5.21,0,0,1,2.36-.54,5.54,5.54,0,0,1,4.32,1.83,7.74,7.74,0,0,1,1.65,5.37,9.21,9.21,0,0,1-1.63,5.59,5.32,5.32,0,0,1-4.54,2.22,4.68,4.68,0,0,1-2.74-.78,6.77,6.77,0,0,1-1.42-1.48v1.81h-2.2ZM108.25,118a7.56,7.56,0,0,0,1-4,6.64,6.64,0,0,0-1-3.71,3.18,3.18,0,0,0-2.84-1.47,4,4,0,0,0-2.86,1.2,5.42,5.42,0,0,0-1.23,4,8.89,8.89,0,0,0,.5,3.24,3.5,3.5,0,0,0,3.53,2.35A3.19,3.19,0,0,0,108.25,118Z" transform="translate(-3.06 -1.99)"/><path class="cls-1" d="M115.84,116.7a3.33,3.33,0,0,0,.61,1.83,3.85,3.85,0,0,0,3.19,1.15,4.84,4.84,0,0,0,2.38-.57,1.92,1.92,0,0,0,1-1.79,1.52,1.52,0,0,0-.82-1.39,9.85,9.85,0,0,0-2.07-.67l-1.93-.48a9.49,9.49,0,0,1-2.71-1,3,3,0,0,1-1.57-2.67,4.07,4.07,0,0,1,1.47-3.26,5.93,5.93,0,0,1,4-1.25c2.16,0,3.73.63,4.68,1.89a4.08,4.08,0,0,1,.88,2.56h-2.26a2.69,2.69,0,0,0-.58-1.46,3.79,3.79,0,0,0-2.91-.93,3.57,3.57,0,0,0-2.1.51,1.61,1.61,0,0,0-.71,1.36,1.67,1.67,0,0,0,.93,1.48,5.73,5.73,0,0,0,1.6.58l1.6.39a12.3,12.3,0,0,1,3.51,1.2,3.19,3.19,0,0,1,1.39,2.88,4.35,4.35,0,0,1-1.45,3.27,6.25,6.25,0,0,1-4.44,1.38c-2.13,0-3.65-.48-4.54-1.44a5.43,5.43,0,0,1-1.42-3.56Z" transform="translate(-3.06 -1.99)"/><path class="cls-1" d="M137.36,107.72a5.61,5.61,0,0,1,1.81,4h-2.32a4.33,4.33,0,0,0-1-2.18,3.07,3.07,0,0,0-2.42-.86,3.35,3.35,0,0,0-3.26,2.22,8.72,8.72,0,0,0-.64,3.56,6.74,6.74,0,0,0,.9,3.59,3.51,3.51,0,0,0,5.19.55,5,5,0,0,0,1.2-2.48h2.32a5.6,5.6,0,0,1-6.06,5.43,5.43,5.43,0,0,1-4.44-2,7.81,7.81,0,0,1-1.65-5.08,8.58,8.58,0,0,1,1.81-5.82,5.89,5.89,0,0,1,4.63-2.08A6.16,6.16,0,0,1,137.36,107.72Z" transform="translate(-3.06 -1.99)"/><path class="cls-1" d="M141.62,107h2.26v2.46a5.47,5.47,0,0,1,1.37-1.75,3.54,3.54,0,0,1,2.5-1H148l.54,0v2.52a3,3,0,0,0-.39,0l-.39,0a3.41,3.41,0,0,0-2.77,1.16,4,4,0,0,0-1,2.67v8.16h-2.38Z" transform="translate(-3.06 -1.99)"/><path class="cls-1" d="M150.59,101.69H153v2.7h-2.42Zm0,5.34H153v14.12h-2.42Z" transform="translate(-3.06 -1.99)"/><path class="cls-1" d="M156.42,107h2.33v1.88a5.89,5.89,0,0,1,1.56-1.49,5,5,0,0,1,2.85-.8,5.35,5.35,0,0,1,4.1,1.85,7.58,7.58,0,0,1,1.69,5.28q0,4.64-2.44,6.62a5.48,5.48,0,0,1-3.59,1.26,4.89,4.89,0,0,1-2.7-.7,6.3,6.3,0,0,1-1.42-1.37v7.25h-2.38Zm9,11.12A6.62,6.62,0,0,0,166.5,114a7.7,7.7,0,0,0-.5-2.91,3.6,3.6,0,0,0-6.8.13,9.76,9.76,0,0,0-.49,3.37,7.07,7.07,0,0,0,.49,2.79,3.38,3.38,0,0,0,3.4,2.2A3.43,3.43,0,0,0,165.39,118.15Z" transform="translate(-3.06 -1.99)"/><path class="cls-1" d="M172.18,103h2.41v4h2.27v2h-2.27v9.26a1,1,0,0,0,.5,1,2.31,2.31,0,0,0,.93.14h.37a4.47,4.47,0,0,0,.47,0v1.89a6,6,0,0,1-.86.18,9.3,9.3,0,0,1-1,0,2.57,2.57,0,0,1-2.26-.86,3.78,3.78,0,0,1-.6-2.22v-9.39h-1.92v-2h1.92Z" transform="translate(-3.06 -1.99)"/><path class="cls-1" d="M179.24,101.69h2.43v2.7h-2.43Zm0,5.34h2.43v14.12h-2.43Z" transform="translate(-3.06 -1.99)"/><path class="cls-1" d="M195.55,108.38a7.18,7.18,0,0,1,1.88,5.37,9.23,9.23,0,0,1-1.66,5.67,6,6,0,0,1-5.14,2.24,5.79,5.79,0,0,1-4.62-2,7.85,7.85,0,0,1-1.71-5.32,8.49,8.49,0,0,1,1.8-5.69,6.06,6.06,0,0,1,4.85-2.12A6.34,6.34,0,0,1,195.55,108.38Zm-1.48,9.43a9,9,0,0,0,.87-4,7.17,7.17,0,0,0-.63-3.23,3.54,3.54,0,0,0-3.43-2,3.37,3.37,0,0,0-3.14,1.67,7.73,7.73,0,0,0-1,4,6.71,6.71,0,0,0,1,3.77,3.43,3.43,0,0,0,3.11,1.51A3.24,3.24,0,0,0,194.07,117.81Z" transform="translate(-3.06 -1.99)"/><path class="cls-1" d="M200.36,107h2.26v2a6.35,6.35,0,0,1,2.14-1.79,5.69,5.69,0,0,1,2.5-.54q3,0,4.08,2.1a7.48,7.48,0,0,1,.58,3.3v9.1H209.5v-8.94a4.78,4.78,0,0,0-.39-2.09,2.31,2.31,0,0,0-2.3-1.33,4.83,4.83,0,0,0-1.39.17,3.64,3.64,0,0,0-1.72,1.17,3.51,3.51,0,0,0-.78,1.45,9.7,9.7,0,0,0-.18,2.14v7.43h-2.38Z" transform="translate(-3.06 -1.99)"/><path class="cls-1" d="M223.55,101.69h8.71a5.9,5.9,0,0,1,4.17,1.47,5.29,5.29,0,0,1,1.59,4.11,6,6,0,0,1-1.42,4,5.35,5.35,0,0,1-4.33,1.69h-6.08v8.22h-2.64Zm10.23,2.68a5.56,5.56,0,0,0-2.38-.41h-5.21v6.74h5.21a5,5,0,0,0,2.86-.75,3,3,0,0,0,1.1-2.67A2.93,2.93,0,0,0,233.78,104.37Z" transform="translate(-3.06 -1.99)"/><path class="cls-1" d="M249.84,107.36a5.35,5.35,0,0,1,2.15,1.83,6.48,6.48,0,0,1,.95,2.5,16.63,16.63,0,0,1,.21,3.13H242.83a6.1,6.1,0,0,0,1,3.47,3.36,3.36,0,0,0,2.93,1.31,3.78,3.78,0,0,0,3-1.23,4.4,4.4,0,0,0,.88-1.67H253a4.89,4.89,0,0,1-.62,1.74,5.93,5.93,0,0,1-1.16,1.57,5.43,5.43,0,0,1-2.67,1.43,7.67,7.67,0,0,1-1.94.22,5.94,5.94,0,0,1-4.46-1.93,7.55,7.55,0,0,1-1.83-5.4,8.18,8.18,0,0,1,1.85-5.55,6,6,0,0,1,4.81-2.13A6.28,6.28,0,0,1,249.84,107.36Zm.86,5.57a6.27,6.27,0,0,0-.67-2.48,3.43,3.43,0,0,0-3.25-1.72,3.59,3.59,0,0,0-2.73,1.18,4.57,4.57,0,0,0-1.17,3Z" transform="translate(-3.06 -1.99)"/><path class="cls-1" d="M266.45,108.38a7.18,7.18,0,0,1,1.88,5.37,9.23,9.23,0,0,1-1.66,5.67,6,6,0,0,1-5.14,2.24,5.79,5.79,0,0,1-4.62-2,7.85,7.85,0,0,1-1.71-5.32,8.49,8.49,0,0,1,1.8-5.69,6.06,6.06,0,0,1,4.85-2.12A6.34,6.34,0,0,1,266.45,108.38ZM265,117.81a9,9,0,0,0,.87-4,7.17,7.17,0,0,0-.63-3.23,3.54,3.54,0,0,0-3.43-2,3.37,3.37,0,0,0-3.14,1.67,7.73,7.73,0,0,0-1,4,6.71,6.71,0,0,0,1,3.77,3.43,3.43,0,0,0,3.11,1.51A3.24,3.24,0,0,0,265,117.81Z" transform="translate(-3.06 -1.99)"/><path class="cls-1" d="M271.06,107h2.33v1.88a5.77,5.77,0,0,1,1.57-1.49,5,5,0,0,1,2.84-.8,5.38,5.38,0,0,1,4.11,1.85,7.57,7.57,0,0,1,1.68,5.28q0,4.64-2.43,6.62a5.52,5.52,0,0,1-3.59,1.26,4.84,4.84,0,0,1-2.7-.7,6.31,6.31,0,0,1-1.43-1.37v7.25h-2.38Zm9,11.12a6.62,6.62,0,0,0,1.11-4.18,7.71,7.71,0,0,0-.49-2.91,3.61,3.61,0,0,0-6.81.13,10,10,0,0,0-.49,3.37,7.25,7.25,0,0,0,.49,2.79,3.62,3.62,0,0,0,6.19.8Z" transform="translate(-3.06 -1.99)"/><path class="cls-1" d="M286.41,101.69h2.39v19.46h-2.39Z" transform="translate(-3.06 -1.99)"/><path class="cls-1" d="M301.14,107.36a5.42,5.42,0,0,1,2.15,1.83,6.32,6.32,0,0,1,.94,2.5,16.63,16.63,0,0,1,.21,3.13H294.12a6.18,6.18,0,0,0,1,3.47,3.35,3.35,0,0,0,2.93,1.31,3.76,3.76,0,0,0,2.95-1.23,4.13,4.13,0,0,0,.88-1.67h2.35a5.1,5.1,0,0,1-.62,1.74,6.18,6.18,0,0,1-1.17,1.57,5.43,5.43,0,0,1-2.67,1.43,7.59,7.59,0,0,1-1.93.22,5.94,5.94,0,0,1-4.46-1.93,7.55,7.55,0,0,1-1.83-5.4,8.17,8.17,0,0,1,1.84-5.55,6.08,6.08,0,0,1,4.82-2.13A6.31,6.31,0,0,1,301.14,107.36Zm.85,5.57a6.11,6.11,0,0,0-.67-2.48,3.42,3.42,0,0,0-3.24-1.72,3.56,3.56,0,0,0-2.73,1.18,4.47,4.47,0,0,0-1.17,3Z" transform="translate(-3.06 -1.99)"/></svg>